<?xml version="1.0" encoding="UTF-8"?><svg id="a" xmlns="http://www.w3.org/2000/svg" xmlns:xlink="http://www.w3.org/1999/xlink" viewBox="0 0 50 50"><defs><style>.e{stroke:url(#b);}.e,.f{fill:none;stroke-linecap:round;stroke-linejoin:round;stroke-width:1.5px;}.f{stroke:#fff;}</style><linearGradient id="b" x1="10.9548" y1="7.7448" x2="29.0203" y2="39.035" gradientTransform="matrix(1, 0, 0, 1, 0, 0)" gradientUnits="userSpaceOnUse"><stop offset="0" stop-color="#da54d8"/><stop offset=".5" stop-color="#0092f4"/><stop offset="1" stop-color="#20dc86"/></linearGradient></defs><path class="e" d="M18.8202,44.058C9.2186,43.0135,1.7458,34.8795,1.7458,25c0-10.5881,8.5833-19.1714,19.1714-19.1714,10.1381,0,18.4382,7.8692,19.1254,17.8327m-9.2009-.0176c-1.1099-1.6925-2.3791-3.2899-3.7977-4.7688-4.4694-4.2872-10.0218-7.2106-16.0081-8.4919-2.7989-.5991-5.3365,1.9386-4.7375,4.7375,1.2813,5.9862,4.2047,11.5387,8.4919,16.008,.7523,.7217,1.5353,1.4047,2.3459,2.0477M34.4567,11.484L7.3776,38.5631"/><circle id="c" class="f" cx="35.717" cy="36.5296" r="3.7478"/><path id="d" class="f" d="M23.1798,31.7619v-1.9188c0-.5276,.449-.9552,1.003-.9552h23.0685c.5539,0,1.003,.4277,1.003,.9552v13.3731c0,.5275-.449,.9552-1.003,.9552H24.1827"/><line class="f" x1="27.2569" y1="35.0901" x2="23.1798" y2="35.0901"/><line class="f" x1="27.2569" y1="38.398" x2="20.1947" y2="38.398"/></svg>