<?xml version="1.0" encoding="UTF-8"?><svg id="a" xmlns="http://www.w3.org/2000/svg" xmlns:xlink="http://www.w3.org/1999/xlink" viewBox="0 0 50 50"><defs><style>.e{stroke:url(#d);}.e,.f{fill:none;stroke-linecap:round;stroke-linejoin:round;stroke-width:1.5px;}.f{stroke:#fff;}</style><linearGradient id="d" x1="12.4377" y1="19.4316" x2="30.6496" y2="50.9755" gradientTransform="matrix(1, 0, 0, 1, 0, 0)" gradientUnits="userSpaceOnUse"><stop offset="0" stop-color="#da54d8"/><stop offset=".5" stop-color="#0092f4"/><stop offset="1" stop-color="#20dc86"/></linearGradient></defs><circle id="b" class="f" cx="33.5656" cy="20.6161" r="5.0714"/><circle id="c" class="f" cx="23.9684" cy="5.9857" r="4.24"/><path class="e" d="M13.4642,28.6228c1.2903,.341,2.8223,.9452,4.5298,1.8096,1.2778,.6469,2.6419,1.1088,4.073,1.1088h3.6981c3.621,0,8.3234,2.5348,8.9872,5.7703,.1983,.9663-.5077,1.8829-1.4904,1.8829h-10.8428m-8.1705,4.608l7.8087,3.7025c1.8795,.8912,4.0357,.9917,5.9894,.2793l17.8036-6.4925c1.5214-.5548,2.0368-2.4548,1.0058-3.7075h0c-1.2004-1.4586-3.1681-2.0303-4.9582-1.4389-4.0407,1.335-7.6184,2.6448-7.6184,2.6448m-23.8175,4.5705V27.2017c0-1.1743-.952-2.1263-2.1263-2.1263h-3.6029c-1.1743,0-2.1263,.952-2.1263,2.1263v16.1587c0,1.1743,.952,2.1263,2.1263,2.1263h3.6029c1.1743,0,2.1263-.952,2.1263-2.1263Z"/></svg>