<?xml version="1.0" encoding="UTF-8"?><svg id="a" xmlns="http://www.w3.org/2000/svg" xmlns:xlink="http://www.w3.org/1999/xlink" viewBox="0 0 50 50"><defs><style>.c{stroke:url(#b);}.c,.d{fill:none;stroke-linecap:round;stroke-linejoin:round;stroke-width:1.5px;}.e{fill:#fff;stroke-miterlimit:10;stroke-width:.25px;}.e,.d{stroke:#fff;}</style><linearGradient id="b" x1="12.6147" y1=".1596" x2="33.8334" y2="36.9114" gradientTransform="matrix(1, 0, 0, 1, 0, 0)" gradientUnits="userSpaceOnUse"><stop offset="0" stop-color="#da54d8"/><stop offset=".4975" stop-color="#0092f4"/><stop offset="1" stop-color="#20dc86"/></linearGradient></defs><path class="c" d="M26.6866,37.462H5.3271c-1.9252,0-3.4858-1.6022-3.4858-3.5787V9.3397c0-1.9765,1.5607-3.5787,3.4858-3.5787H44.6729c1.9252,0,3.4858,1.6022,3.4858,3.5787V27.7746M1.8412,13.1673H48.1587M1.8412,17.8326H48.1587M8.0169,27.9517h15.4392"/><g><g><path class="e" d="M37.6062,37.023c-.3355,0-.6083,.2728-.6083,.6072v.3947c0,.9874,.9046,1.7902,2.0172,1.7902h.9393c1.1126,0,2.0172-.8029,2.0172-1.7902v-.6463c0-.8017-.5379-1.5565-1.277-1.7958h-.0011l-2.0452-.6653c-.2561-.0816-.435-.322-.435-.5859v-.6474c0-.2773,.322-.5748,.8017-.5748h.9393c.4797,0,.8017,.2974,.8017,.5748v.3947c0,.3355,.2728,.6083,.6072,.6083,.3355,0,.6083-.2728,.6083-.6083v-.3947c0-.9874-.9046-1.7902-2.0172-1.7902h-.9393c-1.1126,0-2.0172,.8029-2.0172,1.7902v.6474c0,.795,.5133,1.495,1.277,1.7421l2.0463,.6653c.2438,.0794,.435,.3601,.435,.6396v.6463c0,.2784-.322,.5759-.8017,.5759h-.9393c-.4797,0-.8017-.2974-.8017-.5759v-.3947c0-.3343-.2728-.6072-.6072-.6072Z"/><path class="e" d="M39.4853,30.3451c-.3198,0-.5792,.2594-.5792,.5781v1.5789c0,.3187,.2594,.5781,.5792,.5781,.3187,0,.5781-.2594,.5781-.5781v-1.5789c0-.3187-.2594-.5781-.5781-.5781Z"/><path class="e" d="M39.4853,38.6298c-.3198,0-.5792,.2594-.5792,.5781v1.5789c0,.3187,.2594,.5781,.5792,.5781,.3187,0,.5781-.2594,.5781-.5781v-1.5789c0-.3187-.2594-.5781-.5781-.5781Z"/></g><circle class="d" cx="39.4848" cy="35.855" r="8.3841"/></g></svg>