<?xml version="1.0" encoding="UTF-8"?><svg id="a" xmlns="http://www.w3.org/2000/svg" xmlns:xlink="http://www.w3.org/1999/xlink" viewBox="0 0 50 50"><defs><style>.c{stroke:url(#b);}.c,.d{fill:none;stroke-linecap:round;stroke-linejoin:round;stroke-width:1.5px;}.d{stroke:#fff;}</style><linearGradient id="b" x1="20.8042" y1="15.0617" x2="32.8275" y2="35.8867" gradientTransform="matrix(1, 0, 0, 1, 0, 0)" gradientUnits="userSpaceOnUse"><stop offset="0" stop-color="#da54d8"/><stop offset=".5049" stop-color="#0092f4"/><stop offset=".9972" stop-color="#20dc86"/></linearGradient></defs><circle class="d" cx="24.8621" cy="7.1323" r="5.3823"/><line class="d" x1="24.8621" y1="12.5147" x2="24.8621" y2="15.7441"/><g><circle class="d" cx="8.853" cy="42.8677" r="5.3823"/><line class="d" x1="13.1589" y1="38.5618" x2="16.1883" y2="35.5091"/><circle class="d" cx="41.147" cy="42.8677" r="5.3823"/><line class="d" x1="34.0875" y1="35.5091" x2="37.0256" y2="38.3774"/></g><path class="c" d="M15.2307,19.1456h22.0804c.4794,0,.868,.3886,.868,.868v11.416c0,.4794-.3886,.868-.868,.868H18.4821m7.9542-9.864c-1.8159,0-3.288,1.4721-3.288,3.288s1.4721,3.288,3.288,3.288,3.288-1.4721,3.288-3.288-1.4721-3.288-3.288-3.288Zm-14.6153,1.467h8.4727m-6.8529,3.7821h4.959"/></svg>