<?xml version="1.0" encoding="UTF-8"?><svg id="a" xmlns="http://www.w3.org/2000/svg" xmlns:xlink="http://www.w3.org/1999/xlink" viewBox="0 0 50 50"><defs><style>.c{stroke:url(#b);}.c,.d{fill:none;stroke-linecap:round;stroke-linejoin:round;stroke-width:1.5px;}.d{stroke:#fff;}</style><linearGradient id="b" x1="16.2826" y1="11.3149" x2="32.3506" y2="39.1455" gradientTransform="matrix(1, 0, 0, 1, 0, 0)" gradientUnits="userSpaceOnUse"><stop offset="0" stop-color="#9468e1"/><stop offset=".5" stop-color="#0092f4"/><stop offset="1" stop-color="#20dc86"/></linearGradient></defs><path class="d" d="M11.8124,33.5897l3.4706-8.8936h-.012l3.4706,8.8936m-5.435-2.9645h3.9527"/><path class="d" d="M29.6845,13.8437h10.077m-5.0385-2.2393v2.2393m-2.6562,6.6538c4.5081-2.537,5.4554-6.6538,5.4554-6.6538m-4.6408,2.2395c.9213,1.5999,2.6493,3.6981,5.7604,5.0383"/><path class="c" d="M21.1917,17.0044v-5.9036c0-1.6774,1.3598-3.0372,3.0372-3.0372h20.2107c1.6774,0,3.0372,1.3598,3.0372,3.0372v13.2221c0,.0648,.0062,.1294,.0186,.1931l.7391,3.8046c.1716,.8835-.8086,1.5349-1.5567,1.0346l-3.928-2.6273c-.6375-.5366-1.4441-.8308-2.2774-.8308h-7.7218M1.7655,40.7279c-.1716,.8835,.8086,1.5349,1.5567,1.0346l3.928-2.6273c.6375-.5366,1.4441-.8308,2.2774-.8308H25.7711c1.6774,0,3.0372-1.3598,3.0372-3.0372v-11.759c0-1.6774-1.3598-3.0372-3.0372-3.0372H5.5604c-1.6774,0-3.0372,1.3598-3.0372,3.0372v13.2221c0,.0648-.0062,.1294-.0186,.1931l-.7391,3.8046Z"/></svg>